# xmcd
# 
# Track frame offsets:
#     150
#     19282
#     39862
#     59142
#     77915
#     91995
#     111695
#     132342
#     164580
#     181175
#     198105
#     216210
#     238972
#     254922
#     273220
#     288257
#     305985
#     327700
# 
# Disc length: 4689
# 
# Revision: 3
# Processed by: cddbd v1.5.2PL0 Copyright (c) Steve Scherf et al.
# Submitted via: fre:ac v1.0.17
# 
DISCID=21124f12
DTITLE=R. Kelly - The R. In R&B Collection [ Vol. 1 ]
DYEAR=1990
DGENRE=R&B
TTITLE0=Bump N' Grind 
TTITLE1=Your Body's Calling 
TTITLE2=Sex Me [ Pt. 1 ]
TTITLE3=You Remind Me Of Something 
TTITLE4=Ignition [ remix ]
TTITLE5=Down Low [ Nobody Has To Know - ft. Ron and Ernie Isley ]
TTITLE6=When A Woman's Fed Up 
TTITLE7=Step In The Name Of Love [ remix ]
TTITLE8=Thoia Thoing 
TTITLE9=Touched A Dream 
TTITLE10=Fiesta [ ft. Jay-Z and Boo and Gotti - remix ]
TTITLE11=I Wish 
TTITLE12=Ghetto Religion [ ft. Wyclef Jean ]
TTITLE13=Honey Love [ ft. Public Announcement ]
TTITLE14=She's Got That Vibe [ ft. Public Announcement ]
TTITLE15=The World's Greatest 
TTITLE16=I'm Your Angel  [ ft. Celine Dion ]
TTITLE17=I Believe I Can Fly 
EXTD=YEAR: 2003\n
EXTT0=
EXTT1=
EXTT2=
EXTT3=
EXTT4=
EXTT5=
EXTT6=
EXTT7=
EXTT8=
EXTT9=
EXTT10=
EXTT11=
EXTT12=
EXTT13=
EXTT14=
EXTT15=
EXTT16=
EXTT17=
PLAYORDER=
